<svg width="56" height="56" viewBox="0 0 56 56" fill="none" xmlns="http://www.w3.org/2000/svg">
<path fill-rule="evenodd" clip-rule="evenodd" d="M28 1.5C13.3645 1.5 1.5 13.3645 1.5 28C1.5 42.6355 13.3645 54.5 28 54.5C42.6355 54.5 54.5 42.6355 54.5 28C54.5 13.3645 42.6355 1.5 28 1.5ZM0.5 28C0.5 12.8122 12.8122 0.5 28 0.5C43.1878 0.5 55.5 12.8122 55.5 28C55.5 43.1878 43.1878 55.5 28 55.5C12.8122 55.5 0.5 43.1878 0.5 28Z" fill="black"/>
<path d="M29.6517 38.6665V28.9368H32.9162L33.4039 25.1365H29.6497V22.7167C29.6497 21.6187 29.9558 20.8691 31.5289 20.8691H33.537V17.476C32.5655 17.3753 31.5893 17.3253 30.6125 17.3276C29.9479 17.279 29.2807 17.3766 28.6577 17.6132C28.0347 17.8497 27.471 18.2193 27.0061 18.6967C26.5412 19.1741 26.1863 19.7472 25.9663 20.3763C25.7464 21.0053 25.6667 21.6752 25.7328 22.3383V25.1365H22.46V28.9368H25.7328V38.6665H29.6517Z" fill="black"/>
</svg>
