<svg width="56" height="56" viewBox="0 0 56 56" fill="none" xmlns="http://www.w3.org/2000/svg">
<path fill-rule="evenodd" clip-rule="evenodd" d="M28 1.5C20.9718 1.5 14.2314 4.29196 9.26167 9.26167C4.29196 14.2314 1.5 20.9718 1.5 28C1.5 33.2412 3.0542 38.3647 5.96605 42.7226C8.87791 47.0805 13.0166 50.4771 17.8589 52.4828C22.7011 54.4885 28.0294 55.0133 33.1699 53.9908C38.3104 52.9683 43.0322 50.4444 46.7383 46.7383C50.4444 43.0322 52.9683 38.3104 53.9908 33.1699C55.0133 28.0294 54.4885 22.7011 52.4828 17.8589C50.4771 13.0166 47.0805 8.87791 42.7226 5.96605C38.3647 3.0542 33.2412 1.5 28 1.5ZM8.55456 8.55456C13.7118 3.39731 20.7065 0.5 28 0.5C33.439 0.5 38.7558 2.11285 43.2782 5.13458C47.8005 8.15632 51.3253 12.4512 53.4067 17.4762C55.4881 22.5012 56.0327 28.0305 54.9716 33.365C53.9105 38.6995 51.2914 43.5995 47.4454 47.4454C43.5995 51.2914 38.6995 53.9105 33.365 54.9716C28.0305 56.0327 22.5012 55.4881 17.4762 53.4067C12.4512 51.3253 8.15632 47.8005 5.13458 43.2782C2.11285 38.7558 0.5 33.439 0.5 28C0.5 20.7065 3.39731 13.7118 8.55456 8.55456Z" fill="black"/>
<path d="M28 24.332C25.976 24.332 24.332 25.976 24.332 28C24.332 30.024 25.976 31.672 28 31.672C30.024 31.672 31.672 30.024 31.672 28C31.672 25.976 30.024 24.332 28 24.332Z" fill="black"/>
<path d="M33.536 18H22.464C20.004 18 18 20.004 18 22.464V33.536C18 36 20.004 38 22.464 38H33.536C36 38 38 36 38 33.536V22.464C38 20.004 36 18 33.536 18ZM28 34.48C24.428 34.48 21.52 31.572 21.52 28C21.52 24.428 24.428 21.524 28 21.524C31.572 21.524 34.48 24.428 34.48 28C34.48 31.572 31.572 34.48 28 34.48ZM34.616 22.7C33.86 22.7 33.244 22.088 33.244 21.332C33.244 20.576 33.86 19.96 34.616 19.96C35.372 19.96 35.988 20.576 35.988 21.332C35.988 22.088 35.372 22.7 34.616 22.7Z" fill="black"/>
</svg>
