<svg width="15" height="18" viewBox="0 0 15 18" fill="none" xmlns="http://www.w3.org/2000/svg">
<path d="M7.71689 3.74731e-05C11.2203 -0.0113422 14.3285 2.57033 14.8732 6.04569C15.3382 9.01048 14.3103 11.4139 11.9114 13.2111C10.7545 14.0775 9.78268 15.1001 9.04452 16.3436C8.84499 16.6796 8.64623 17.0165 8.44215 17.3495C8.07876 17.942 7.35425 17.9443 6.99921 17.3442C6.43933 16.3982 5.84986 15.4757 5.0988 14.6647C4.50933 14.0282 3.83338 13.4918 3.16804 12.9395C1.21301 11.3168 0.285188 9.21987 0.487747 6.68447C0.760101 3.28422 3.2826 0.614541 6.6434 0.0956269C6.99769 0.0410044 7.35881 0.0303833 7.71689 3.74731e-05ZM10.9464 7.30504C10.9487 5.51388 9.5126 4.05955 7.74116 4.05879C5.93331 4.05879 4.49567 5.49415 4.49492 7.30125C4.49416 9.07421 5.94241 10.5164 7.72902 10.5209C9.4906 10.5255 10.9442 9.07269 10.9464 7.30428V7.30504Z" fill="black"/>
</svg>
