<svg width="18" height="12" viewBox="0 0 18 12" fill="none" xmlns="http://www.w3.org/2000/svg">
<path d="M17.906 3.36279V3.51507C17.906 5.83373 17.9067 8.15239 17.906 10.4717C17.906 11.2118 17.4327 11.7921 16.6942 11.9556C16.5506 11.9876 16.3984 11.9982 16.2502 11.9982C11.6874 12.0001 7.12466 12.0007 2.5619 11.9995C1.58208 11.9995 0.910696 11.3691 0.910696 10.4516C0.910031 8.14299 0.910696 5.83498 0.910696 3.52635V3.36843C0.96321 3.39663 1.00044 3.41418 1.03434 3.43611C3.32502 4.87431 5.61438 6.31313 7.90506 7.75132C8.88489 8.36671 9.93251 8.36734 10.9157 7.75007C13.211 6.31 15.5043 4.86741 17.799 3.42609C17.8256 3.40917 17.8529 3.39413 17.9067 3.36279H17.906Z" fill="black"/>
<path d="M9.40519 0C11.6892 0 13.9733 0.000626665 16.258 0C16.7279 0 17.1394 0.13348 17.4678 0.458092C18.1405 1.12298 18.0322 2.14194 17.2225 2.65894C16.1935 3.31631 15.1545 3.96115 14.1202 4.611C12.8831 5.38806 11.6467 6.16513 10.4096 6.94219C9.69767 7.389 9.12135 7.389 8.41207 6.94344C6.15795 5.52718 3.90449 4.11217 1.65169 2.69654C1.02684 2.30425 0.77756 1.7039 0.974323 1.06345C1.16643 0.438039 1.76669 0.0162933 2.4866 0.00125333C2.54177 0 2.59695 0.00125333 2.65279 0.00125333C4.90359 0.00125333 7.15505 0.00125333 9.40586 0.00125333L9.40519 0Z" fill="black"/>
</svg>
