<svg width="14" height="24" viewBox="0 0 14 24" fill="none" xmlns="http://www.w3.org/2000/svg">
<path d="M5.2289 1.36548C5.70438 1.58048 6.1798 1.79391 6.6547 2.0102C7.468 2.38105 7.7896 3.15144 7.44874 3.9718C7.03278 4.97193 6.73502 6.00082 6.60504 7.07856C6.53724 7.63816 6.22742 8.02119 5.72075 8.27971C5.0064 8.64417 4.30813 9.04135 3.6074 9.43202C3.55968 9.45905 3.51954 9.55123 3.52309 9.60994C3.65477 11.8808 4.37702 13.938 5.74887 15.762C6.0251 16.1292 6.01929 16.1335 6.47443 16.0299C7.19408 15.8654 7.91192 15.6946 8.63309 15.5369C9.06375 15.4431 9.46282 15.5472 9.81047 15.8093C10.2071 16.1083 10.5713 16.455 10.9851 16.7262C11.5022 17.0658 12.0481 17.3659 12.596 17.6545C13.2329 17.9904 13.5579 18.5501 13.4524 19.2307C13.4292 19.3792 13.378 19.5266 13.3164 19.6646C12.8907 20.6163 12.4608 21.567 12.0293 22.5161C11.6474 23.3557 10.8192 23.6578 9.98242 23.2671C6.9724 21.8621 4.57465 19.7602 2.83119 16.9333C1.19056 14.2733 0.367547 11.3704 0.349032 8.24335C0.339679 6.71758 0.535242 5.21658 0.96526 3.75524C1.19446 2.97697 1.48975 2.2147 1.79739 1.46265C2.12166 0.668733 2.96584 0.356817 3.75511 0.700596C4.24951 0.916438 4.73805 1.14352 5.22954 1.36577L5.2289 1.36548Z" fill="black"/>
</svg>
